<svg width="375" height="89" fill="none" xmlns="http://www.w3.org/2000/svg"><g filter="url(#a)"><path d="M367.637 8H235.329a7.245 7.245 0 0 0-3.266.773 7.289 7.289 0 0 0-2.574 2.163 7.34 7.34 0 0 0-1.145 6.461 43.157 43.157 0 0 1 1.223 19.817 43.06 43.06 0 0 1-7.776 18.252 42.78 42.78 0 0 1-15.112 12.786 42.555 42.555 0 0 1-19.219 4.59 42.555 42.555 0 0 1-19.219-4.59 42.78 42.78 0 0 1-15.112-12.786 43.06 43.06 0 0 1-7.776-18.252 43.157 43.157 0 0 1 1.223-19.817 7.34 7.34 0 0 0-1.143-6.447 7.29 7.29 0 0 0-2.564-2.163 7.243 7.243 0 0 0-3.256-.78H7.356a7.344 7.344 0 0 0-5.202 2.17A7.42 7.42 0 0 0 0 15.409v73.585h375V15.4a7.42 7.42 0 0 0-2.157-5.233A7.343 7.343 0 0 0 367.637 8Z" fill="#fff"/></g><defs><filter id="a" x="-8" y="0" width="391" height="96.993" filterUnits="userSpaceOnUse" color-interpolation-filters="sRGB"><feFlood flood-opacity="0" result="BackgroundImageFix"/><feColorMatrix in="SourceAlpha" values="0 0 0 0 0 0 0 0 0 0 0 0 0 0 0 0 0 0 127 0" result="hardAlpha"/><feOffset/><feGaussianBlur stdDeviation="4"/><feComposite in2="hardAlpha" operator="out"/><feColorMatrix values="0 0 0 0 0.323177 0 0 0 0 0.323177 0 0 0 0 0.354167 0 0 0 0.3 0"/><feBlend in2="BackgroundImageFix" result="effect1_dropShadow_1479_9494"/><feBlend in="SourceGraphic" in2="effect1_dropShadow_1479_9494" result="shape"/></filter></defs></svg>