<svg version="1.1" id="Layer_1" xmlns="http://www.w3.org/2000/svg" xmlns:xlink="http://www.w3.org/1999/xlink" x="0px" y="0px"
	 width="100%" viewBox="0 0 1254 1254" enable-background="new 0 0 1254 1254" xml:space="preserve">
<path fill="#FDFDFD" opacity="1.000000" stroke="none" 
	d="
M1.000000,460.000000 
	C1.000000,306.666656 1.000000,153.833328 1.000000,1.000000 
	C419.000000,1.000000 837.000000,1.000000 1255.000000,1.000000 
	C1255.000000,419.000000 1255.000000,837.000000 1255.000000,1255.000000 
	C837.000000,1255.000000 419.000000,1255.000000 1.000000,1255.000000 
	C1.000000,990.166687 1.000000,725.333313 1.000000,460.000000 
M1089.120850,913.707153 
	C1090.537231,895.434143 1091.919067,877.158447 1093.376343,858.888733 
	C1097.192139,811.051208 1101.099731,763.220825 1104.859863,715.378967 
	C1108.424072,670.029785 1111.783936,624.664551 1115.349121,579.315430 
	C1119.567017,525.661255 1123.924805,472.018097 1128.192017,418.367767 
	C1131.745850,373.685486 1135.284302,329.001923 1138.722778,284.310699 
	C1138.958496,281.246246 1139.897095,279.807526 1142.983398,278.769501 
	C1153.904785,275.096222 1160.229004,266.086609 1160.417236,254.514023 
	C1160.528198,247.683334 1160.382935,240.848816 1160.387817,234.016037 
	C1160.415649,195.018616 1160.488525,156.021164 1160.468750,117.023766 
	C1160.462280,104.325951 1155.158936,95.590569 1144.619263,91.732193 
	C1140.826294,90.343620 1136.490845,89.927483 1132.402832,89.926163 
	C878.252625,89.844101 624.102417,89.849319 369.952179,89.851059 
	C283.124481,89.851654 196.296768,89.837807 109.469109,89.895004 
	C93.554665,89.905487 82.554443,100.303230 82.489006,115.837433 
	C82.293808,162.166946 82.308983,208.497742 82.391609,254.827759 
	C82.412193,266.364929 89.166801,275.201019 100.044121,278.909821 
	C101.278854,279.330841 102.509712,279.763153 103.738945,280.189056 
	C104.481438,290.535248 105.194466,300.668976 105.938225,310.800446 
	C109.183121,355.002930 112.362747,399.210358 115.711319,443.404999 
	C118.329559,477.960663 121.277924,512.491394 123.869003,547.049011 
	C127.145279,590.745178 130.136536,634.462708 133.382141,678.161194 
	C136.837646,724.685364 140.488831,771.194885 143.978180,817.716553 
	C148.526794,878.360596 152.983765,939.011475 157.511353,999.657104 
	C160.972137,1046.013184 164.609314,1092.356567 167.907944,1138.724243 
	C169.285446,1158.087036 178.748306,1167.314819 198.210846,1167.306641 
	C255.540207,1167.282593 312.869568,1167.274658 370.198944,1167.273315 
	C594.850464,1167.268188 819.502014,1167.269653 1044.153564,1167.263550 
	C1059.414307,1167.263184 1070.077148,1157.507202 1071.265747,1142.379150 
	C1073.327759,1116.134399 1075.300903,1089.882690 1077.353638,1063.637085 
	C1081.238770,1013.969482 1085.153687,964.304260 1089.120850,913.707153 
z"/>
<path fill="#020202" opacity="1.000000" stroke="none" 
	d="
M1089.088501,914.172607 
	C1085.153687,964.304260 1081.238770,1013.969482 1077.353638,1063.637085 
	C1075.300903,1089.882690 1073.327759,1116.134399 1071.265747,1142.379150 
	C1070.077148,1157.507202 1059.414307,1167.263184 1044.153564,1167.263550 
	C819.502014,1167.269653 594.850464,1167.268188 370.198944,1167.273315 
	C312.869568,1167.274658 255.540207,1167.282593 198.210846,1167.306641 
	C178.748306,1167.314819 169.285446,1158.087036 167.907944,1138.724243 
	C164.609314,1092.356567 160.972137,1046.013184 157.511353,999.657104 
	C152.983765,939.011475 148.526794,878.360596 143.978180,817.716553 
	C140.488831,771.194885 136.837646,724.685364 133.382141,678.161194 
	C130.136536,634.462708 127.145279,590.745178 123.869003,547.049011 
	C121.277924,512.491394 118.329559,477.960663 115.711319,443.404999 
	C112.362747,399.210358 109.183121,355.002930 105.938225,310.800446 
	C105.194466,300.668976 104.481438,290.535248 103.738945,280.189056 
	C102.509712,279.763153 101.278854,279.330841 100.044121,278.909821 
	C89.166801,275.201019 82.412193,266.364929 82.391609,254.827759 
	C82.308983,208.497742 82.293808,162.166946 82.489006,115.837433 
	C82.554443,100.303230 93.554665,89.905487 109.469109,89.895004 
	C196.296768,89.837807 283.124481,89.851654 369.952179,89.851059 
	C624.102417,89.849319 878.252625,89.844101 1132.402832,89.926163 
	C1136.490845,89.927483 1140.826294,90.343620 1144.619263,91.732193 
	C1155.158936,95.590569 1160.462280,104.325951 1160.468750,117.023766 
	C1160.488525,156.021164 1160.415649,195.018616 1160.387817,234.016037 
	C1160.382935,240.848816 1160.528198,247.683334 1160.417236,254.514023 
	C1160.229004,266.086609 1153.904785,275.096222 1142.983398,278.769501 
	C1139.897095,279.807526 1138.958496,281.246246 1138.722778,284.310699 
	C1135.284302,329.001923 1131.745850,373.685486 1128.192017,418.367767 
	C1123.924805,472.018097 1119.567017,525.661255 1115.349121,579.315430 
	C1111.783936,624.664551 1108.424072,670.029785 1104.859863,715.378967 
	C1101.099731,763.220825 1097.192139,811.051208 1093.376343,858.888733 
	C1091.919067,877.158447 1090.537231,895.434143 1089.088501,914.172607 
M365.500702,279.784546 
	C359.222900,279.784546 352.945099,279.784546 346.177887,279.784546 
	C358.740936,557.740662 371.272247,834.994995 383.808594,1112.360596 
	C541.378845,1112.360596 697.957092,1112.360596 855.107788,1112.360596 
	C869.013916,834.771790 882.906494,557.453186 896.816711,279.782745 
	C719.446167,279.782745 542.973267,279.782745 365.500702,279.784546 
M1006.492432,1112.797485 
	C1010.158875,1112.811157 1013.833801,1112.675415 1017.489075,1112.884033 
	C1020.637329,1113.063599 1021.804504,1111.983643 1022.051697,1108.704956 
	C1026.936279,1043.924683 1031.935669,979.153259 1036.915527,914.380310 
	C1040.031128,873.855042 1043.107910,833.326599 1046.283203,792.806030 
	C1050.134766,743.655762 1054.118774,694.515869 1057.956055,645.364502 
	C1060.808105,608.832520 1063.452637,572.284302 1066.306641,535.752502 
	C1070.133545,486.767181 1074.075562,437.790924 1077.963745,388.810425 
	C1080.573608,355.933655 1083.183472,323.056915 1085.768555,290.178223 
	C1086.034790,286.793365 1086.132935,283.395294 1086.305664,280.068146 
	C1085.005493,279.859100 1084.520386,279.712921 1084.035278,279.712799 
	C1040.375610,279.701569 996.715881,279.742188 953.056580,279.625580 
	C949.468384,279.615997 949.097473,281.175812 948.957947,284.112000 
	C947.945801,305.405884 946.771667,326.691986 945.661072,347.981201 
	C943.144714,396.217560 940.613098,444.453094 938.130493,492.691193 
	C936.272705,528.790833 934.508118,564.895264 932.654846,600.995178 
	C930.135559,650.067383 927.525513,699.135010 925.041199,748.209045 
	C923.188416,784.809631 921.532349,821.420288 919.682373,858.021057 
	C917.185059,907.427856 914.569031,956.828613 912.036072,1006.233643 
	C910.415527,1037.840576 908.834106,1069.449463 907.289368,1101.060303 
	C907.106018,1104.812256 907.264465,1108.580688 907.264465,1112.792480 
	C940.246155,1112.792480 972.870483,1112.792480 1006.492432,1112.797485 
M238.500595,1112.769775 
	C269.262238,1112.769775 300.023865,1112.769775 331.034607,1112.769775 
	C331.034607,1110.186523 331.108856,1108.367188 331.023682,1106.555420 
	C329.123169,1066.119141 327.196320,1025.683960 325.292419,985.247864 
	C322.589111,927.834351 319.852814,870.422363 317.220184,813.005554 
	C315.121826,767.241211 313.162842,721.470398 311.131683,675.702942 
	C309.514038,639.254517 307.871368,602.807251 306.256927,566.358643 
	C304.237000,520.754944 302.228058,475.150604 300.226501,429.546021 
	C298.093597,380.947784 295.939575,332.350342 293.926575,283.747101 
	C293.787109,280.379730 292.637878,279.599396 289.487183,279.606750 
	C246.822571,279.706055 204.157730,279.687469 161.492950,279.718384 
	C160.051636,279.719452 158.610474,279.933563 156.629791,280.091339 
	C177.431030,557.763123 198.204132,835.059265 219.008011,1112.766357 
	C225.566635,1112.766357 231.533752,1112.766357 238.500595,1112.769775 
M367.499817,228.718842 
	C614.395752,228.718842 861.291626,228.718842 1108.255859,228.718842 
	C1108.255859,199.383636 1108.255859,170.820175 1108.255859,142.195465 
	C783.618347,142.195465 459.375702,142.195465 134.850998,142.195465 
	C134.850998,171.053314 134.850998,199.617310 134.850998,228.718094 
	C212.257919,228.718094 289.378876,228.718094 367.499817,228.718842 
z"/>
<path fill="#FDFDFD" opacity="1.000000" stroke="none" 
	d="
M366.000549,279.783630 
	C542.973267,279.782745 719.446167,279.782745 896.816711,279.782745 
	C882.906494,557.453186 869.013916,834.771790 855.107788,1112.360596 
	C697.957092,1112.360596 541.378845,1112.360596 383.808594,1112.360596 
	C371.272247,834.994995 358.740936,557.740662 346.177887,279.784546 
	C352.945099,279.784546 359.222900,279.784546 366.000549,279.783630 
M687.654541,676.933838 
	C684.397217,693.272278 681.283264,709.641907 677.738464,725.917725 
	C677.161438,728.567383 675.101562,732.373291 672.998596,732.939575 
	C666.133484,734.788086 665.629089,739.919556 664.380432,745.354248 
	C663.331360,749.920410 664.901306,750.925293 669.024048,750.905029 
	C687.190002,750.815796 705.358215,751.041626 723.522766,750.862610 
	C737.679321,750.723083 751.882751,750.777344 765.972534,749.617249 
	C782.840271,748.228455 798.461609,743.215515 808.809021,728.361755 
	C820.613647,711.416260 819.130737,685.186462 793.286133,676.831421 
	C792.458862,676.563965 791.723145,676.013489 790.497131,675.354309 
	C794.452820,673.428162 798.012451,672.007996 801.255127,670.060181 
	C813.308167,662.820190 819.666992,652.233215 818.261230,638.018188 
	C816.891174,624.164246 807.967590,616.148865 795.252686,612.841980 
	C786.141113,610.472351 776.599365,608.884766 767.205994,608.643494 
	C744.388367,608.057312 721.545166,608.414001 698.712524,608.485962 
	C689.310242,608.515625 689.310791,608.626892 687.647522,617.736084 
	C687.557739,618.227966 687.248962,618.801147 687.403137,619.195190 
	C688.058472,620.869873 688.398560,623.147766 689.668213,624.020630 
	C695.796570,628.233521 696.475342,629.470764 695.112671,636.784729 
	C692.671753,649.886292 690.250610,662.991577 687.654541,676.933838 
M493.499664,608.435669 
	C479.176300,608.454651 464.852600,608.533203 450.529877,608.446533 
	C447.339508,608.427185 445.459473,609.426147 445.022003,612.747253 
	C444.783722,614.556091 444.390930,616.370117 443.831024,618.105408 
	C442.833679,621.196350 443.692108,623.077148 446.786163,624.364563 
	C451.540314,626.342712 452.753204,630.285645 451.874664,635.066406 
	C450.881592,640.470398 449.907227,645.878784 448.824860,651.265259 
	C442.560516,682.440308 436.343475,713.625305 429.901398,744.763733 
	C428.917511,749.519287 430.143860,751.005249 434.921173,750.949036 
	C452.074066,750.746948 469.230347,750.857666 486.384979,750.768616 
	C492.868164,750.734924 493.392761,749.698730 494.896576,738.958923 
	C495.606079,733.891418 491.485870,734.762573 489.092987,733.990662 
	C481.639160,731.586243 479.485260,728.819519 480.682587,721.199097 
	C482.025970,712.649109 483.872009,704.177673 485.195648,695.625122 
	C485.732483,692.156372 487.070221,690.917725 490.675812,690.973022 
	C502.497559,691.154358 514.326721,690.843079 526.148987,691.008972 
	C530.126831,691.064758 531.852844,689.635559 532.356140,685.723145 
	C532.906738,681.443237 533.826904,677.181885 534.960754,673.014465 
	C536.050293,669.010193 534.919861,667.479797 530.723145,667.585449 
	C523.066345,667.778137 515.401794,667.665161 507.740448,667.673523 
	C502.474152,667.679260 497.207855,667.674622 491.481171,667.674622 
	C491.676270,665.613770 491.688812,664.154419 491.967987,662.747986 
	C493.815399,653.440796 495.853424,644.168945 497.530823,634.831970 
	C498.087982,631.730652 499.355835,630.713013 502.449799,630.757446 
	C511.606750,630.888916 520.769531,630.609558 529.926697,630.736328 
	C539.207642,630.864746 544.340637,634.651001 546.588196,643.524963 
	C547.651489,647.722778 549.469849,649.588318 553.799316,648.955322 
	C555.431213,648.716797 557.129211,648.819519 558.789307,648.910034 
	C561.563354,649.061218 563.066406,647.994385 563.589050,645.101379 
	C565.393860,635.111389 567.438965,625.164917 569.268982,615.179199 
	C570.447144,608.750671 570.211243,608.511047 563.452148,608.498108 
	C540.468018,608.454163 517.483826,608.458374 493.499664,608.435669 
M604.208984,608.556824 
	C599.632568,609.554688 598.151123,612.316833 597.602417,620.168701 
	C597.321533,624.188416 600.432861,624.073181 602.840210,624.841003 
	C610.512329,627.287720 613.181519,630.404724 611.855042,637.442078 
	C607.319519,661.504333 602.926208,685.612732 597.497498,709.480408 
	C593.943298,725.106873 582.678711,731.458374 566.900757,728.189575 
	C562.060120,727.186646 557.350708,725.367493 552.724792,723.555603 
	C546.561401,721.141602 544.131104,722.270996 542.887756,728.631592 
	C542.184570,732.228882 541.747192,735.916992 540.631470,739.384460 
	C539.347046,743.375977 540.388000,745.527710 544.300171,747.061096 
	C565.465027,755.356750 587.035583,755.775818 608.478760,749.205811 
	C630.255920,742.533447 640.756348,725.863342 645.009155,704.436584 
	C649.451599,682.054077 653.977722,659.688049 658.503296,637.322083 
	C659.616516,631.820618 662.060242,626.694214 667.718079,625.250305 
	C673.569458,623.757019 675.108154,620.127502 675.850098,614.991089 
	C676.697021,609.128235 676.511658,608.580627 670.581299,608.567993 
	C648.749878,608.521545 626.918335,608.544495 604.208984,608.556824 
z"/>
<path fill="#ED2025" opacity="1.000000" stroke="none" 
	d="
M1005.993591,1112.794922 
	C972.870483,1112.792480 940.246155,1112.792480 907.264465,1112.792480 
	C907.264465,1108.580688 907.106018,1104.812256 907.289368,1101.060303 
	C908.834106,1069.449463 910.415527,1037.840576 912.036072,1006.233643 
	C914.569031,956.828613 917.185059,907.427856 919.682373,858.021057 
	C921.532349,821.420288 923.188416,784.809631 925.041199,748.209045 
	C927.525513,699.135010 930.135559,650.067383 932.654846,600.995178 
	C934.508118,564.895264 936.272705,528.790833 938.130493,492.691193 
	C940.613098,444.453094 943.144714,396.217560 945.661072,347.981201 
	C946.771667,326.691986 947.945801,305.405884 948.957947,284.112000 
	C949.097473,281.175812 949.468384,279.615997 953.056580,279.625580 
	C996.715881,279.742188 1040.375610,279.701569 1084.035278,279.712799 
	C1084.520386,279.712921 1085.005493,279.859100 1086.305664,280.068146 
	C1086.132935,283.395294 1086.034790,286.793365 1085.768555,290.178223 
	C1083.183472,323.056915 1080.573608,355.933655 1077.963745,388.810425 
	C1074.075562,437.790924 1070.133545,486.767181 1066.306641,535.752502 
	C1063.452637,572.284302 1060.808105,608.832520 1057.956055,645.364502 
	C1054.118774,694.515869 1050.134766,743.655762 1046.283203,792.806030 
	C1043.107910,833.326599 1040.031128,873.855042 1036.915527,914.380310 
	C1031.935669,979.153259 1026.936279,1043.924683 1022.051697,1108.704956 
	C1021.804504,1111.983643 1020.637329,1113.063599 1017.489075,1112.884033 
	C1013.833801,1112.675415 1010.158875,1112.811157 1005.993591,1112.794922 
z"/>
<path fill="#ED2025" opacity="1.000000" stroke="none" 
	d="
M238.000732,1112.768066 
	C231.533752,1112.766357 225.566635,1112.766357 219.008011,1112.766357 
	C198.204132,835.059265 177.431030,557.763123 156.629791,280.091339 
	C158.610474,279.933563 160.051636,279.719452 161.492950,279.718384 
	C204.157730,279.687469 246.822571,279.706055 289.487183,279.606750 
	C292.637878,279.599396 293.787109,280.379730 293.926575,283.747101 
	C295.939575,332.350342 298.093597,380.947784 300.226501,429.546021 
	C302.228058,475.150604 304.237000,520.754944 306.256927,566.358643 
	C307.871368,602.807251 309.514038,639.254517 311.131683,675.702942 
	C313.162842,721.470398 315.121826,767.241211 317.220184,813.005554 
	C319.852814,870.422363 322.589111,927.834351 325.292419,985.247864 
	C327.196320,1025.683960 329.123169,1066.119141 331.023682,1106.555420 
	C331.108856,1108.367188 331.034607,1110.186523 331.034607,1112.769775 
	C300.023865,1112.769775 269.262238,1112.769775 238.000732,1112.768066 
z"/>
<path fill="#FCFCFC" opacity="1.000000" stroke="none" 
	d="
M366.999817,228.718475 
	C289.378876,228.718094 212.257919,228.718094 134.850998,228.718094 
	C134.850998,199.617310 134.850998,171.053314 134.850998,142.195465 
	C459.375702,142.195465 783.618347,142.195465 1108.255859,142.195465 
	C1108.255859,170.820175 1108.255859,199.383636 1108.255859,228.718842 
	C861.291626,228.718842 614.395752,228.718842 366.999817,228.718475 
z"/>
<path fill="#060606" opacity="1.000000" stroke="none" 
	d="
M687.737915,676.514526 
	C690.250610,662.991577 692.671753,649.886292 695.112671,636.784729 
	C696.475342,629.470764 695.796570,628.233521 689.668213,624.020630 
	C688.398560,623.147766 688.058472,620.869873 687.403137,619.195190 
	C687.248962,618.801147 687.557739,618.227966 687.647522,617.736084 
	C689.310791,608.626892 689.310242,608.515625 698.712524,608.485962 
	C721.545166,608.414001 744.388367,608.057312 767.205994,608.643494 
	C776.599365,608.884766 786.141113,610.472351 795.252686,612.841980 
	C807.967590,616.148865 816.891174,624.164246 818.261230,638.018188 
	C819.666992,652.233215 813.308167,662.820190 801.255127,670.060181 
	C798.012451,672.007996 794.452820,673.428162 790.497131,675.354309 
	C791.723145,676.013489 792.458862,676.563965 793.286133,676.831421 
	C819.130737,685.186462 820.613647,711.416260 808.809021,728.361755 
	C798.461609,743.215515 782.840271,748.228455 765.972534,749.617249 
	C751.882751,750.777344 737.679321,750.723083 723.522766,750.862610 
	C705.358215,751.041626 687.190002,750.815796 669.024048,750.905029 
	C664.901306,750.925293 663.331360,749.920410 664.380432,745.354248 
	C665.629089,739.919556 666.133484,734.788086 672.998596,732.939575 
	C675.101562,732.373291 677.161438,728.567383 677.738464,725.917725 
	C681.283264,709.641907 684.397217,693.272278 687.737915,676.514526 
M764.694824,720.143677 
	C765.983032,718.016357 767.579956,716.015137 768.508850,713.741028 
	C774.056519,700.159058 768.333313,689.832947 753.858704,688.078796 
	C747.290161,687.282715 740.547913,687.640381 733.908386,687.964478 
	C732.687561,688.024109 730.881470,690.278748 730.537964,691.791077 
	C728.509949,700.719971 726.810242,709.724182 725.053467,718.713440 
	C724.463135,721.734009 724.029480,724.785217 723.314880,729.080505 
	C733.440369,728.464111 742.616516,728.533142 751.550415,727.095764 
	C755.995239,726.380737 759.995789,722.903564 764.694824,720.143677 
M769.171326,658.590088 
	C770.569763,655.244873 772.523438,652.016907 773.259033,648.531799 
	C775.209717,639.288879 770.413086,632.294250 761.095581,630.997925 
	C755.713135,630.249084 750.177246,630.450256 744.716492,630.552246 
	C743.677124,630.571594 742.236816,631.935669 741.743713,633.024536 
	C741.011292,634.641724 740.942505,636.563843 740.618958,638.361145 
	C738.953003,647.615723 737.295898,656.871887 735.520264,666.770996 
	C740.890625,666.770996 745.658875,666.780518 750.427063,666.768799 
	C757.570557,666.751160 763.764343,664.436890 769.171326,658.590088 
z"/>
<path fill="#070707" opacity="1.000000" stroke="none" 
	d="
M493.999634,608.439941 
	C517.483826,608.458374 540.468018,608.454163 563.452148,608.498108 
	C570.211243,608.511047 570.447144,608.750671 569.268982,615.179199 
	C567.438965,625.164917 565.393860,635.111389 563.589050,645.101379 
	C563.066406,647.994385 561.563354,649.061218 558.789307,648.910034 
	C557.129211,648.819519 555.431213,648.716797 553.799316,648.955322 
	C549.469849,649.588318 547.651489,647.722778 546.588196,643.524963 
	C544.340637,634.651001 539.207642,630.864746 529.926697,630.736328 
	C520.769531,630.609558 511.606750,630.888916 502.449799,630.757446 
	C499.355835,630.713013 498.087982,631.730652 497.530823,634.831970 
	C495.853424,644.168945 493.815399,653.440796 491.967987,662.747986 
	C491.688812,664.154419 491.676270,665.613770 491.481171,667.674622 
	C497.207855,667.674622 502.474152,667.679260 507.740448,667.673523 
	C515.401794,667.665161 523.066345,667.778137 530.723145,667.585449 
	C534.919861,667.479797 536.050293,669.010193 534.960754,673.014465 
	C533.826904,677.181885 532.906738,681.443237 532.356140,685.723145 
	C531.852844,689.635559 530.126831,691.064758 526.148987,691.008972 
	C514.326721,690.843079 502.497559,691.154358 490.675812,690.973022 
	C487.070221,690.917725 485.732483,692.156372 485.195648,695.625122 
	C483.872009,704.177673 482.025970,712.649109 480.682587,721.199097 
	C479.485260,728.819519 481.639160,731.586243 489.092987,733.990662 
	C491.485870,734.762573 495.606079,733.891418 494.896576,738.958923 
	C493.392761,749.698730 492.868164,750.734924 486.384979,750.768616 
	C469.230347,750.857666 452.074066,750.746948 434.921173,750.949036 
	C430.143860,751.005249 428.917511,749.519287 429.901398,744.763733 
	C436.343475,713.625305 442.560516,682.440308 448.824860,651.265259 
	C449.907227,645.878784 450.881592,640.470398 451.874664,635.066406 
	C452.753204,630.285645 451.540314,626.342712 446.786163,624.364563 
	C443.692108,623.077148 442.833679,621.196350 443.831024,618.105408 
	C444.390930,616.370117 444.783722,614.556091 445.022003,612.747253 
	C445.459473,609.426147 447.339508,608.427185 450.529877,608.446533 
	C464.852600,608.533203 479.176300,608.454651 493.999634,608.439941 
z"/>
<path fill="#070706" opacity="1.000000" stroke="none" 
	d="
M604.647888,608.549072 
	C626.918335,608.544495 648.749878,608.521545 670.581299,608.567993 
	C676.511658,608.580627 676.697021,609.128235 675.850098,614.991089 
	C675.108154,620.127502 673.569458,623.757019 667.718079,625.250305 
	C662.060242,626.694214 659.616516,631.820618 658.503296,637.322083 
	C653.977722,659.688049 649.451599,682.054077 645.009155,704.436584 
	C640.756348,725.863342 630.255920,742.533447 608.478760,749.205811 
	C587.035583,755.775818 565.465027,755.356750 544.300171,747.061096 
	C540.388000,745.527710 539.347046,743.375977 540.631470,739.384460 
	C541.747192,735.916992 542.184570,732.228882 542.887756,728.631592 
	C544.131104,722.270996 546.561401,721.141602 552.724792,723.555603 
	C557.350708,725.367493 562.060120,727.186646 566.900757,728.189575 
	C582.678711,731.458374 593.943298,725.106873 597.497498,709.480408 
	C602.926208,685.612732 607.319519,661.504333 611.855042,637.442078 
	C613.181519,630.404724 610.512329,627.287720 602.840210,624.841003 
	C600.432861,624.073181 597.321533,624.188416 597.602417,620.168701 
	C598.151123,612.316833 599.632568,609.554688 604.647888,608.549072 
z"/>
<path fill="#F5F5F5" opacity="1.000000" stroke="none" 
	d="
M764.446045,720.409790 
	C759.995789,722.903564 755.995239,726.380737 751.550415,727.095764 
	C742.616516,728.533142 733.440369,728.464111 723.314880,729.080505 
	C724.029480,724.785217 724.463135,721.734009 725.053467,718.713440 
	C726.810242,709.724182 728.509949,700.719971 730.537964,691.791077 
	C730.881470,690.278748 732.687561,688.024109 733.908386,687.964478 
	C740.547913,687.640381 747.290161,687.282715 753.858704,688.078796 
	C768.333313,689.832947 774.056519,700.159058 768.508850,713.741028 
	C767.579956,716.015137 765.983032,718.016357 764.446045,720.409790 
z"/>
<path fill="#F2F2F2" opacity="1.000000" stroke="none" 
	d="
M768.946045,658.873291 
	C763.764343,664.436890 757.570557,666.751160 750.427063,666.768799 
	C745.658875,666.780518 740.890625,666.770996 735.520264,666.770996 
	C737.295898,656.871887 738.953003,647.615723 740.618958,638.361145 
	C740.942505,636.563843 741.011292,634.641724 741.743713,633.024536 
	C742.236816,631.935669 743.677124,630.571594 744.716492,630.552246 
	C750.177246,630.450256 755.713135,630.249084 761.095581,630.997925 
	C770.413086,632.294250 775.209717,639.288879 773.259033,648.531799 
	C772.523438,652.016907 770.569763,655.244873 768.946045,658.873291 
z"/>
</svg>