<svg width="26" height="19" fill="none" xmlns="http://www.w3.org/2000/svg"><path d="M23.444 18.958H2.556A2.556 2.556 0 0 1 0 16.402v-3.885a.638.638 0 0 1 .511-.639 2.454 2.454 0 0 0 0-4.805.639.639 0 0 1-.51-.639V2.556A2.556 2.556 0 0 1 2.555 0h20.888A2.555 2.555 0 0 1 26 2.556V6.39a.639.639 0 0 1-.55.639 2.435 2.435 0 0 0 0 4.83.639.639 0 0 1 .55.64v3.865a2.558 2.558 0 0 1-2.556 2.594ZM1.284 13.01v3.4a1.278 1.278 0 0 0 1.278 1.278H23.45a1.279 1.279 0 0 0 1.278-1.278v-3.35a3.714 3.714 0 0 1 0-7.125V2.588A1.277 1.277 0 0 0 23.45 1.31H2.562a1.278 1.278 0 0 0-1.278 1.278v3.4a3.725 3.725 0 0 1 0 7.028v-.007Z" fill="#969696"/><path d="M12.198 12.319H5.169a.639.639 0 1 1 0-1.278h7.029a.639.639 0 0 1 0 1.278Zm-1.662 2.805H5.17a.639.639 0 1 1 0-1.278h5.361a.639.639 0 0 1 0 1.278h.006Zm4.786-7.546a1.706 1.706 0 1 0 0-3.412 1.706 1.706 0 0 0 0 3.412Zm4.46 7.259a1.706 1.706 0 1 0 0-3.412 1.706 1.706 0 0 0 0 3.412Zm-5.476.217a.638.638 0 0 1-.53-.99l6.486-9.834a.638.638 0 1 1 1.067.703l-6.486 9.834a.64.64 0 0 1-.537.287Z" fill="#969696"/></svg>