<svg width="28" height="29" fill="none" xmlns="http://www.w3.org/2000/svg"><path d="m7 7.54 1.5 20H20l1-20H7Z" fill="#fff"/><path d="M4.308 27.579 2.923 7.732h4.154L8 27.58H4.308Zm15.692 0 .75-19.847h4.327L23.692 27.58H20Z" fill="#EE2A2A"/><path d="M23.6 28.04H4.4c-.222 0-.445-.178-.445-.4l-1.51-20c0-.133.044-.267.133-.355a.48.48 0 0 1 .31-.134h22.223c.133 0 .222.045.311.134a.505.505 0 0 1 .133.355l-1.51 20c0 .222-.223.4-.445.4Zm-18.8-.889h18.4l1.422-19.11H3.378L4.8 27.15Z" fill="#000" stroke="#000" stroke-width=".3"/><path d="M19.867 28.04H8.089a.445.445 0 0 1-.444-.444l-.934-20c0-.134.045-.223.134-.311a.48.48 0 0 1 .31-.134H20.8c.133 0 .222.045.311.134a.48.48 0 0 1 .133.31l-.933 20c0 .267-.178.445-.444.445Zm-11.334-.889h10.934l.889-19.11H7.645l.888 19.11Z" fill="#000" stroke="#000" stroke-width=".3"/><path d="M2.5 4.54v3h23v-3h-23Z" fill="#fff"/><path d="M25.556 8.04H2.444C2.178 8.04 2 7.862 2 7.596V4.485c0-.267.178-.445.444-.445h23.112c.266 0 .444.178.444.445v3.11c0 .267-.178.445-.444.445ZM2.889 7.151H25.11V4.93H2.89v2.222Z" fill="#000" stroke="#000" stroke-width=".3"/><path d="M17.333 18.707c-.177-.045-.355-.045-.533-.09-.533-.132-.933-.444-1.022-1.021-.09-.534.089-.978.444-1.378a1.92 1.92 0 0 1 .978-.533 3.073 3.073 0 0 1 1.556 0c.133.044.133.044.088.177-.044.223-.088.4-.133.623 0 .088-.044.133-.133.088h-.09c-.088 0-.132 0-.132-.133 0-.222-.134-.355-.356-.355-.356-.045-.622.088-.844.31a1.282 1.282 0 0 0-.312 1.023c.045.355.4.667.8.711.267.044.578 0 .845-.089.133-.044.133 0 .133.134 0 .044 0 .088-.044.177-.045.223-.045.223-.267.267-.178.044-.355.044-.533.089h-.444Zm-6.666-1.689a8.8 8.8 0 0 0 .71-.622c.09-.09.179-.178.268-.223.088-.088.088-.088 0-.177-.045 0-.045-.045-.045-.09 0-.044 0-.088.045-.133 0-.044.044-.088.088-.088h1.2c.09 0 .09.044.09.088 0 .045 0 .09-.045.134a.096.096 0 0 1-.089.089c-.178.044-.311.088-.444.222-.312.267-.623.533-.978.8.044.089.089.133.133.222.222.267.445.578.622.845.09.133.223.266.4.266.045 0 .09.045.09.09 0 .044 0 .132-.045.177 0 .044-.045.044-.09.044h-.8a.71.71 0 0 1-.621-.355 13.935 13.935 0 0 1-.534-.845c-.044-.044-.044-.089-.088-.133-.045.222-.09.4-.134.622 0 .045 0 .09-.044.133-.045.09 0 .178.089.223.088.044.088.089.088.178-.044.222 0 .222-.266.222h-1.2c-.134 0-.134 0-.134-.178 0-.133.045-.178.178-.222a.535.535 0 0 0 .222-.223c.09-.177.09-.4.134-.577.089-.4.178-.756.266-1.156.045-.133 0-.267-.133-.355-.044 0-.044-.045-.044-.09.044-.266.044-.222.266-.222h1.156c.133 0 .133.045.133.178a.244.244 0 0 1-.133.222c-.044 0-.089.09-.133.134-.09.222-.134.489-.178.8-.045-.045 0 0 0 0Zm3.644-.089h.845c.088 0 .133.044.088.133-.044.134-.044.223-.088.356 0 .089-.045.089-.134.089h-.844c-.09 0-.134 0-.134.089 0 .133-.044.266-.088.4-.045.133 0 .222.088.266.09.045.09.09.09.178-.045.222 0 .222-.267.222h-.934c-.133 0-.178-.044-.133-.177.178-.712.311-1.423.489-2.134.044-.222.044-.266-.133-.4-.045 0-.045-.044-.045-.089.044-.266 0-.266.267-.266h2.31c.134 0 .179.044.134.177-.044.223-.089.4-.133.623 0 .089-.045.089-.133.089h-.09c-.177 0-.177 0-.177-.178 0-.133-.089-.222-.267-.222H14.4c-.045 0-.089.044-.089.044.089.311.044.533 0 .8Z" fill="#000"/></svg>