<svg width="28" height="28" fill="none" xmlns="http://www.w3.org/2000/svg"><path d="M22.118 27H5.888c-.431 0-.857-.098-1.246-.288a2.879 2.879 0 0 1-1-.812 2.995 2.995 0 0 1-.562-1.184 3.032 3.032 0 0 1-.007-1.316c1.224-5.656 5.72-9.606 10.933-9.606s9.703 3.95 10.927 9.606c.095.431.094.88-.003 1.31a2.979 2.979 0 0 1-.558 1.181c-.27.346-.613.625-1.003.817-.39.192-.818.292-1.25.292Zm-8.112-11.956c-4.637 0-8.638 3.544-9.74 8.631a1.754 1.754 0 0 0 .33 1.444 1.647 1.647 0 0 0 1.292.625h16.23a1.611 1.611 0 0 0 1.291-.625 1.709 1.709 0 0 0 .33-1.444c-1.1-5.087-5.102-8.631-9.733-8.631Z" fill="#969696"/><path fill-rule="evenodd" clip-rule="evenodd" d="M14.667 16.537a4.97 4.97 0 0 1 2.337-.268c.04.481.027.965-.037 1.444-.64 0-1.278-.057-1.909-.17.055.27.171.5.233.776.058.322.09.648.098.975.177 2.206.44 2.5.458 4.831-.18.075-.366.131-.556.169-.19.075-.294.225-.428.237a38.349 38.349 0 0 1-.557-5.743 2.015 2.015 0 0 1 .098-.976c-.23.021-.461.021-.691 0 .195.625 0 .97-.037 1.925-.092 1.307-.172 1.644-.294 2.938-.098 1.056-.049 1.462-.612 1.956-.177-.05-.245-.244-.391-.337-.147-.094-.288-.081-.398-.2.22-2.25.514-2.369.691-4.669a4.662 4.662 0 0 1 .361-1.875c-.667.044-1.278.15-2.006.138a4.052 4.052 0 0 1 0-1.413 6.244 6.244 0 0 1 2.337.237c.11.05.152-.137.33-.168a4.98 4.98 0 0 1 .691 0 .297.297 0 0 1 .263.2" fill="#969696"/><path d="M14.006 13.213a5.425 5.425 0 0 1-3.059-.948A5.6 5.6 0 0 1 8.919 9.74a5.738 5.738 0 0 1-.313-3.25 5.663 5.663 0 0 1 1.507-2.88 5.472 5.472 0 0 1 2.82-1.54 5.398 5.398 0 0 1 3.18.32 5.534 5.534 0 0 1 2.471 2.073 5.71 5.71 0 0 1 .928 3.125 5.69 5.69 0 0 1-1.612 3.977 5.448 5.448 0 0 1-3.894 1.648Zm0-10a4.22 4.22 0 0 0-2.38.737 4.356 4.356 0 0 0-1.576 1.963 4.46 4.46 0 0 0-.244 2.528 4.405 4.405 0 0 0 1.172 2.24 4.255 4.255 0 0 0 2.193 1.198c.83.168 1.692.082 2.474-.25a4.304 4.304 0 0 0 1.922-1.61 4.45 4.45 0 0 0 .722-2.431 4.422 4.422 0 0 0-1.267-3.07 4.237 4.237 0 0 0-3.016-1.268v-.037Z" fill="#969696"/></svg>