<svg width="28" height="28" fill="none" xmlns="http://www.w3.org/2000/svg"><path d="M24.023 27H3.977a2.178 2.178 0 0 1-1.538-.616 2.16 2.16 0 0 1-.654-1.516v-20.1a.623.623 0 0 1 .628-.624h23.174a.63.63 0 0 1 .628.625v20.1a2.158 2.158 0 0 1-.654 1.515c-.41.4-.963.62-1.538.616ZM3.041 5.394v19.474a.904.904 0 0 0 .586.823c.111.042.23.062.35.059h20.046a.914.914 0 0 0 .857-.537.902.902 0 0 0 .079-.345V5.394H3.041Z" fill="#969696"/><path d="M13.592 23.713H2.47a.63.63 0 0 1-.628-.625v-9.45a.623.623 0 0 1 .628-.625h11.122a.63.63 0 0 1 .628.625v9.45a.623.623 0 0 1-.628.625Zm-10.494-1.25h9.866v-8.2H3.098v8.2ZM23.138 27h-7.072a.63.63 0 0 1-.628-.625V13.638a.623.623 0 0 1 .628-.625h7.072a.63.63 0 0 1 .628.625v12.737a.623.623 0 0 1-.628.625Zm-6.444-1.25h5.816V14.263h-5.816V25.75Z" fill="#969696"/><path d="M17.234 20.631h-1.168a.629.629 0 0 1-.628-.625.623.623 0 0 1 .628-.625h1.168a.63.63 0 0 1 .628.625.623.623 0 0 1-.628.625Z" fill="#969696"/><path d="M26.372 2.625H1.628V5.55h24.744V2.625Z" fill="#fff"/><path d="M26.372 6.175H1.628A.63.63 0 0 1 1 5.55V2.625A.623.623 0 0 1 1.628 2h24.744a.63.63 0 0 1 .628.625V5.55a.623.623 0 0 1-.628.625ZM2.256 4.925h23.488V3.25H2.256v1.675Z" fill="#969696"/></svg>