<svg width="28" height="28" fill="none" xmlns="http://www.w3.org/2000/svg"><circle cx="14" cy="14" r="14" fill="#E9E9E9"/><path d="M23.683 14.495a3.086 3.086 0 0 1 2.671-3.048V7.613a1.916 1.916 0 0 0-1.917-1.917H3.55a1.917 1.917 0 0 0-1.917 1.917v3.879a3.093 3.093 0 0 1 0 6.057v3.885a1.917 1.917 0 0 0 1.917 1.917h20.888a1.917 1.917 0 0 0 1.917-1.917v-3.866a3.073 3.073 0 0 1-2.67-3.073Z" fill="#EE2A2A"/><path d="M4 9h1.797V6H4v3Zm3.598 0h1.8V6h-1.8v3Zm3.601 0H13V6h-1.8v3Z" fill="#fff"/><path d="M24.444 23.958H3.556A2.556 2.556 0 0 1 1 21.402v-3.885a.638.638 0 0 1 .511-.639 2.454 2.454 0 0 0 0-4.805.639.639 0 0 1-.51-.639V7.556A2.556 2.556 0 0 1 3.555 5h20.888A2.555 2.555 0 0 1 27 7.556v3.834a.638.638 0 0 1-.55.639 2.434 2.434 0 0 0 0 4.83.639.639 0 0 1 .55.64v3.865a2.558 2.558 0 0 1-2.556 2.594ZM2.284 18.01v3.4a1.278 1.278 0 0 0 1.278 1.278H24.45a1.279 1.279 0 0 0 1.278-1.278v-3.35a3.714 3.714 0 0 1 0-7.125V7.588A1.277 1.277 0 0 0 24.45 6.31H3.562a1.278 1.278 0 0 0-1.278 1.278v3.4a3.726 3.726 0 0 1 0 7.028v-.007Z" fill="#000"/><path d="M13.198 17.32H6.169a.639.639 0 1 1 0-1.279h7.029a.639.639 0 0 1 0 1.278Zm-1.662 2.804H6.17a.639.639 0 1 1 0-1.278h5.361a.639.639 0 0 1 0 1.278h.006Zm4.786-7.546a1.706 1.706 0 1 0 0-3.412 1.706 1.706 0 0 0 0 3.412Zm4.46 7.259a1.706 1.706 0 1 0 0-3.412 1.706 1.706 0 0 0 0 3.412Zm-5.476.217a.638.638 0 0 1-.53-.99l6.486-9.834a.638.638 0 1 1 1.067.703l-6.486 9.833a.64.64 0 0 1-.537.288Z" fill="#fff"/></svg>