<svg width="28" height="28" fill="none" xmlns="http://www.w3.org/2000/svg"><circle cx="14" cy="14" r="14" fill="#E9E9E9"/><path d="M7.31 25.863a1.95 1.95 0 0 1-2.61-.138 1.904 1.904 0 0 1-.347-2.116.166.166 0 0 0-.022-.185.163.163 0 0 0-.18-.045 1.88 1.88 0 0 1-2.068-.571 1.94 1.94 0 0 1 .222-2.694 1.88 1.88 0 0 1 1.905-.322 1.296 1.296 0 0 0 1.364-.283l1.755-1.596 2.642 2.943-1.696 1.55a1.355 1.355 0 0 0-.398 1.407 1.918 1.918 0 0 1-.568 2.05Z" fill="#fff"/><path d="M6.09 26.966a2.523 2.523 0 0 1-1.901-.838 2.56 2.56 0 0 1-.644-1.987 2.492 2.492 0 0 1-1.958-.907 2.64 2.64 0 0 1 .294-3.62 2.537 2.537 0 0 1 2.57-.433.648.648 0 0 0 .686-.158l1.755-1.596a.65.65 0 0 1 .92.046l2.642 2.943a.659.659 0 0 1-.046.926l-1.696 1.551a.657.657 0 0 0-.209.716 2.586 2.586 0 0 1-.776 2.753 2.534 2.534 0 0 1-1.638.604Zm-1.847-4.23a.838.838 0 0 1 .607.269.823.823 0 0 1 .13.906 1.256 1.256 0 0 0 .235 1.386 1.255 1.255 0 0 0 1.703.093 1.256 1.256 0 0 0 .372-1.347 2.025 2.025 0 0 1 .574-2.096l1.22-1.11-1.768-1.972-1.273 1.157a1.985 1.985 0 0 1-2.035.407 1.239 1.239 0 0 0-1.54.575 1.262 1.262 0 0 0 .363 1.613 1.242 1.242 0 0 0 1.138.17.746.746 0 0 1 .274-.052Z" fill="#000"/><path d="m13.292 19.312-1.677 1.525a1.219 1.219 0 0 1-1.345.202 1.221 1.221 0 0 1-.384-.288l-2.472-2.746a1.24 1.24 0 0 1 .091-1.741l1.67-1.531a4.293 4.293 0 0 0 1.344-2.556c.757-4.993 5.22-10.078 10.4-9.467a6.099 6.099 0 0 1 3.846 1.983 6.183 6.183 0 0 1 1.583 4.048c.084 5.256-5.39 9.198-10.394 9.487a4.25 4.25 0 0 0-2.662 1.084Z" fill="#EE2A2A"/><path d="M10.767 21.816a1.876 1.876 0 0 1-1.396-.657l-2.466-2.747a1.906 1.906 0 0 1 .137-2.674l1.67-1.524a3.674 3.674 0 0 0 1.135-2.168C10.65 6.79 15.413 1.369 20.971 2.02c1.633.196 3.14.98 4.244 2.209a6.886 6.886 0 0 1 1.759 4.473c.084 5.63-5.735 9.855-11.014 10.144a3.653 3.653 0 0 0-2.257.92l-1.677 1.524a1.86 1.86 0 0 1-1.259.526Zm9.278-18.502c-4.482 0-8.234 4.547-8.913 8.962a5.011 5.011 0 0 1-1.54 2.943L7.917 16.75a.57.57 0 0 0-.156.622.572.572 0 0 0 .117.193l2.466 2.746a.568.568 0 0 0 .618.157.567.567 0 0 0 .19-.117l1.678-1.525a4.914 4.914 0 0 1 3.06-1.255c4.69-.25 9.858-3.942 9.787-8.817A5.495 5.495 0 0 0 24.27 5.13a5.423 5.423 0 0 0-3.443-1.77 6.229 6.229 0 0 0-.757-.045h-.026Z" fill="#000"/><path d="M16.94 14.68c-.523-.584.423-1.314 1.5-2.28 1.076-.965 1.879-1.852 2.4-1.268.523.585.08 1.86-.997 2.839-1.077.979-2.375 1.294-2.904.71Z" fill="#fff"/></svg>