<svg width="28" height="28" fill="none" xmlns="http://www.w3.org/2000/svg"><circle cx="14" cy="14" r="14" fill="#E9E9E9"/><path d="M24.023 26.375H3.977a1.543 1.543 0 0 1-1.437-.922 1.526 1.526 0 0 1-.127-.584v-20.1h23.174v20.1a1.524 1.524 0 0 1-.973 1.4c-.188.073-.389.11-.59.106Z" fill="#EE2A2A"/><path fill="#fff" d="M3 14h10v9H3zm13 0h7v12h-7z"/><path d="M24.023 27H3.977a2.178 2.178 0 0 1-1.538-.616 2.158 2.158 0 0 1-.654-1.515v-20.1a.623.623 0 0 1 .628-.625h23.174a.63.63 0 0 1 .628.625v20.1a2.158 2.158 0 0 1-.654 1.515c-.41.4-.963.621-1.538.616ZM3.041 5.394v19.475a.904.904 0 0 0 .586.822c.111.042.23.062.35.059h20.046a.912.912 0 0 0 .936-.881V5.394H3.041Z" fill="#000"/><path d="M6.25 10.575h3.096V5.094H6.25v5.481Zm6.199 0h3.102V5.094H12.45v5.481Zm6.205 0h3.102V5.094h-3.102v5.481Z" fill="#fff"/><path d="M13.592 23.713H2.47a.63.63 0 0 1-.628-.625v-9.45a.623.623 0 0 1 .628-.625h11.122a.63.63 0 0 1 .628.625v9.45a.623.623 0 0 1-.628.625Zm-10.494-1.25h9.866v-8.2H3.098v8.2ZM23.138 27h-7.072a.63.63 0 0 1-.628-.625V13.638a.623.623 0 0 1 .628-.625h7.072a.63.63 0 0 1 .628.625v12.737a.623.623 0 0 1-.628.625Zm-6.444-1.25h5.816V14.263h-5.816V25.75Z" fill="#000"/><path d="M17.234 20.631h-1.168a.629.629 0 0 1-.628-.625.623.623 0 0 1 .628-.625h1.168a.63.63 0 0 1 .628.625.623.623 0 0 1-.628.625Z" fill="#000"/><path d="M26.372 2.625H1.628V5.55h24.744V2.625Z" fill="#fff"/><path d="M26.372 6.175H1.628A.63.63 0 0 1 1 5.55V2.625A.623.623 0 0 1 1.628 2h24.744a.63.63 0 0 1 .628.625V5.55a.623.623 0 0 1-.628.625ZM2.256 4.925h23.488V3.25H2.256v1.675Z" fill="#000"/></svg>