<svg width="14" height="14" fill="none" xmlns="http://www.w3.org/2000/svg"><path d="M2.253 2.336H.439A.44.44 0 0 1 0 1.894a.44.44 0 0 1 .44-.441h1.813a.44.44 0 0 1 .439.441.44.44 0 0 1-.44.442Zm11.307 0H5.146a.44.44 0 0 1-.44-.442.44.44 0 0 1 .44-.441h8.416a.44.44 0 0 1 .439.441.44.44 0 0 1-.44.442ZM7.914 7.44H.439A.44.44 0 0 1 0 6.998a.44.44 0 0 1 .44-.441h7.474a.44.44 0 0 1 .439.441.44.44 0 0 1-.44.442Zm5.646 0H10.8a.44.44 0 0 1-.44-.442.44.44 0 0 1 .44-.441h2.762a.44.44 0 0 1 .439.441.44.44 0 0 1-.44.442Zm-9.375 5.104H.44a.44.44 0 0 1-.44-.442.44.44 0 0 1 .44-.442h3.745a.44.44 0 0 1 .44.442.44.44 0 0 1-.44.442Zm9.375 0H7.068a.44.44 0 0 1-.44-.442.44.44 0 0 1 .44-.442h6.494a.44.44 0 0 1 .439.442.44.44 0 0 1-.44.442Z" fill="#353535"/><path d="M3.7 3.792a1.891 1.891 0 0 1-1.883-1.894C1.817.855 2.66 0 3.7 0s1.884.852 1.884 1.894A1.897 1.897 0 0 1 3.7 3.792Zm0-2.908c-.555 0-1.005.452-1.005 1.01 0 .559.45 1.011 1.005 1.011.556 0 1.005-.452 1.005-1.01 0-.559-.45-1.011-1.005-1.011Zm5.654 8.012a1.891 1.891 0 0 1-1.883-1.894c0-1.046.847-1.895 1.883-1.895 1.04 0 1.884.852 1.884 1.895a1.894 1.894 0 0 1-1.884 1.894Zm0-2.909c-.555 0-1.005.453-1.005 1.011 0 .559.45 1.011 1.005 1.011a1.01 1.01 0 0 0 0-2.022ZM5.622 14a1.891 1.891 0 0 1-1.883-1.895c0-1.046.847-1.894 1.883-1.894 1.04 0 1.884.852 1.884 1.894A1.894 1.894 0 0 1 5.622 14Zm0-2.909c-.555 0-1.005.452-1.005 1.01 0 .56.45 1.012 1.005 1.012.556 0 1.006-.453 1.006-1.011 0-.559-.45-1.011-1.006-1.011Z" fill="#353535"/></svg>