<svg width="28" height="28" fill="none" xmlns="http://www.w3.org/2000/svg"><path d="M6.09 26.966a2.523 2.523 0 0 1-1.901-.838 2.56 2.56 0 0 1-.644-1.987 2.492 2.492 0 0 1-1.958-.907 2.64 2.64 0 0 1 .294-3.62 2.537 2.537 0 0 1 2.57-.433.648.648 0 0 0 .686-.158l1.755-1.596a.65.65 0 0 1 .92.046l2.642 2.943a.659.659 0 0 1-.046.926l-1.696 1.551a.657.657 0 0 0-.209.716 2.586 2.586 0 0 1-.776 2.753 2.534 2.534 0 0 1-1.638.604Zm-1.847-4.23a.838.838 0 0 1 .607.269.823.823 0 0 1 .13.906 1.256 1.256 0 0 0 .235 1.386 1.255 1.255 0 0 0 1.703.093 1.256 1.256 0 0 0 .372-1.347 2.025 2.025 0 0 1 .574-2.096l1.22-1.11-1.768-1.972-1.273 1.157a1.985 1.985 0 0 1-2.035.407 1.239 1.239 0 0 0-1.54.575 1.262 1.262 0 0 0 .363 1.613 1.242 1.242 0 0 0 1.138.17.746.746 0 0 1 .274-.052Z" fill="#969696"/><path d="M10.767 21.816a1.875 1.875 0 0 1-1.396-.657l-2.466-2.747a1.906 1.906 0 0 1 .137-2.674l1.67-1.524a3.674 3.674 0 0 0 1.135-2.168C10.65 6.79 15.413 1.369 20.971 2.02a6.796 6.796 0 0 1 4.244 2.209 6.886 6.886 0 0 1 1.759 4.473c.084 5.63-5.735 9.855-11.014 10.144a3.652 3.652 0 0 0-2.257.92l-1.677 1.524a1.86 1.86 0 0 1-1.259.526Zm9.278-18.502c-4.482 0-8.234 4.547-8.913 8.962a5.012 5.012 0 0 1-1.54 2.943L7.917 16.75a.57.57 0 0 0-.156.622.572.572 0 0 0 .117.193l2.466 2.746a.567.567 0 0 0 .809.04l1.677-1.525a4.914 4.914 0 0 1 3.06-1.255c4.69-.25 9.858-3.942 9.787-8.817a5.495 5.495 0 0 0-1.405-3.626 5.423 5.423 0 0 0-3.443-1.768 6.227 6.227 0 0 0-.757-.046h-.026Z" fill="#969696"/></svg>